<mxfile host="65bd71144e">
    <diagram id="Fk3AHDLqvngULkR8Kzym" name="Page-1">
        <mxGraphModel dx="1039" dy="397" grid="0" gridSize="10" guides="1" tooltips="1" connect="1" arrows="1" fold="1" page="1" pageScale="1" pageWidth="827" pageHeight="1169" math="0" shadow="0">
            <root>
                <mxCell id="0"/>
                <mxCell id="1" parent="0"/>
                <mxCell id="4" value="@Pizze" style="rounded=1;whiteSpace=wrap;html=1;" parent="1" vertex="1">
                    <mxGeometry x="103" y="50" width="500" height="411" as="geometry"/>
                </mxCell>
                <mxCell id="8" style="edgeStyle=none;html=1;" parent="1" source="2" target="7" edge="1">
                    <mxGeometry relative="1" as="geometry"/>
                </mxCell>
                <mxCell id="10" value="@Output()" style="edgeLabel;html=1;align=center;verticalAlign=middle;resizable=0;points=[];" parent="8" vertex="1" connectable="0">
                    <mxGeometry x="0.3072" relative="1" as="geometry">
                        <mxPoint as="offset"/>
                    </mxGeometry>
                </mxCell>
                <mxCell id="2" value="&lt;br&gt;@AddPizza" style="rounded=1;whiteSpace=wrap;html=1;" parent="1" vertex="1">
                    <mxGeometry x="160" y="90" width="149" height="134" as="geometry"/>
                </mxCell>
                <mxCell id="3" value="&lt;br&gt;@ListaPizze" style="rounded=1;whiteSpace=wrap;html=1;" parent="1" vertex="1">
                    <mxGeometry x="399" y="90" width="148" height="162" as="geometry"/>
                </mxCell>
                <mxCell id="9" style="edgeStyle=none;html=1;entryX=0.5;entryY=1;entryDx=0;entryDy=0;" parent="1" source="7" target="3" edge="1">
                    <mxGeometry relative="1" as="geometry"/>
                </mxCell>
                <mxCell id="11" value="@Input()" style="edgeLabel;html=1;align=center;verticalAlign=middle;resizable=0;points=[];" parent="9" vertex="1" connectable="0">
                    <mxGeometry x="-0.2178" y="-2" relative="1" as="geometry">
                        <mxPoint as="offset"/>
                    </mxGeometry>
                </mxCell>
                <mxCell id="7" value="gateway" style="ellipse;whiteSpace=wrap;html=1;aspect=fixed;" parent="1" vertex="1">
                    <mxGeometry x="315" y="321" width="80" height="80" as="geometry"/>
                </mxCell>
                <mxCell id="12" value="@Pizza" style="rounded=1;whiteSpace=wrap;html=1;" parent="1" vertex="1">
                    <mxGeometry x="410" y="98" width="121" height="22" as="geometry"/>
                </mxCell>
                <mxCell id="13" value="@Pizza" style="rounded=1;whiteSpace=wrap;html=1;" parent="1" vertex="1">
                    <mxGeometry x="420" y="108" width="121" height="22" as="geometry"/>
                </mxCell>
                <mxCell id="14" value="@Pizza" style="rounded=1;whiteSpace=wrap;html=1;" parent="1" vertex="1">
                    <mxGeometry x="430" y="118" width="121" height="22" as="geometry"/>
                </mxCell>
                <mxCell id="15" value="@Pizza" style="rounded=1;whiteSpace=wrap;html=1;" parent="1" vertex="1">
                    <mxGeometry x="440" y="128" width="121" height="22" as="geometry"/>
                </mxCell>
                <mxCell id="16" value="@Pizza" style="rounded=1;whiteSpace=wrap;html=1;" parent="1" vertex="1">
                    <mxGeometry x="450" y="138" width="121" height="22" as="geometry"/>
                </mxCell>
                <mxCell id="19" style="edgeStyle=none;html=1;entryX=0.012;entryY=0.16;entryDx=0;entryDy=0;entryPerimeter=0;" edge="1" parent="1" source="17" target="18">
                    <mxGeometry relative="1" as="geometry">
                        <Array as="points">
                            <mxPoint x="630" y="345"/>
                        </Array>
                    </mxGeometry>
                </mxCell>
                <mxCell id="17" value="@Pizza" style="rounded=1;whiteSpace=wrap;html=1;" parent="1" vertex="1">
                    <mxGeometry x="460" y="148" width="121" height="22" as="geometry"/>
                </mxCell>
                <mxCell id="18" value="" style="rounded=1;whiteSpace=wrap;html=1;" vertex="1" parent="1">
                    <mxGeometry x="669" y="80" width="120" height="184" as="geometry"/>
                </mxCell>
                <mxCell id="20" value="Nome - Prezzo" style="text;html=1;strokeColor=none;fillColor=none;align=center;verticalAlign=middle;whiteSpace=wrap;rounded=0;" vertex="1" parent="1">
                    <mxGeometry x="671" y="90" width="118" height="30" as="geometry"/>
                </mxCell>
                <mxCell id="21" value="Nome - Prezzo" style="text;html=1;strokeColor=none;fillColor=none;align=center;verticalAlign=middle;whiteSpace=wrap;rounded=0;" vertex="1" parent="1">
                    <mxGeometry x="671" y="118" width="118" height="30" as="geometry"/>
                </mxCell>
                <mxCell id="22" value="Nome - Prezzo" style="text;html=1;strokeColor=none;fillColor=none;align=center;verticalAlign=middle;whiteSpace=wrap;rounded=0;" vertex="1" parent="1">
                    <mxGeometry x="674" y="148" width="118" height="30" as="geometry"/>
                </mxCell>
                <mxCell id="23" value="Carrello" style="text;html=1;align=center;verticalAlign=middle;resizable=0;points=[];autosize=1;strokeColor=none;fillColor=none;" vertex="1" parent="1">
                    <mxGeometry x="702" y="46" width="60" height="26" as="geometry"/>
                </mxCell>
                <mxCell id="24" value="GestioneCarrelloService" style="ellipse;whiteSpace=wrap;html=1;" vertex="1" parent="1">
                    <mxGeometry x="547" y="326" width="171" height="80" as="geometry"/>
                </mxCell>
            </root>
        </mxGraphModel>
    </diagram>
</mxfile>
